#tb 0: 1/1000
0,          0,          0,        0,     1632, 7e334867e27046fabf0f39365311c38c
0,         33,         33,        0,     1632, d2a49216ecedea62f546e54c1552f163
0,         66,         66,        0,     1632, f66e10d1779533e5b6e2b98369134833
0,        100,        100,        0,     1632, 0054b8d4393df58eee87784862a29901
0,        133,        133,        0,     1632, b9cdf3ebea0d1e3f1e0c42db2e11a3c2
0,        166,        166,        0,     1632, c08a728d955a559457c82e44c3296148
0,        200,        200,        0,     1632, d05f4c4a8b0e606525c3d388d26a9351
0,        233,        233,        0,     1632, 78fc2544da88a1a21d6626b0f7bbcf8c
0,        266,        266,        0,     1632, 90832c4fed05390377551359bb9a91f7
0,        300,        300,        0,     1632, 5290a0e77081863398f36c7ae192710b
